HIERARCHY
ROOT Hips
{
	OFFSET -0.001795 -0.223333 0.028219
	CHANNELS 6 Xposition Yposition Zposition Zrotation Yrotation Xrotation 
	JOINT LeftUpLeg
	{
		OFFSET 0.069520 -0.091406 -0.006815
		CHANNELS 3 Zrotation Yrotation Xrotation
		JOINT LeftLeg
		{
			OFFSET 0.034277 -0.375199 -0.004496
			CHANNELS 3 Zrotation Yrotation Xrotation
			JOINT LeftFoot
			{
				OFFSET -0.013596 -0.397961 -0.043693
				CHANNELS 3 Zrotation Yrotation Xrotation
				JOINT LeftToe
				{
					OFFSET 0.026358 -0.055791 0.119288
					CHANNELS 3 Zrotation Yrotation Xrotation
					End Site
					{
						OFFSET 0.000000 0.000000 0.000000
					}
				}
			}
		}
	}
	JOINT RightUpLeg
	{
		OFFSET -0.067670 -0.090522 -0.004320
		CHANNELS 3 Zrotation Yrotation Xrotation
		JOINT RightLeg
		{
			OFFSET -0.038290 -0.382569 -0.008850
			CHANNELS 3 Zrotation Yrotation Xrotation
			JOINT RightFoot
			{
				OFFSET 0.015774 -0.398415 -0.042312
				CHANNELS 3 Zrotation Yrotation Xrotation
				JOINT RightToe
				{
					OFFSET -0.025372 -0.048144 0.123348
					CHANNELS 3 Zrotation Yrotation Xrotation
					End Site
					{
						OFFSET 0.000000 0.000000 0.000000
					}
				}
			}
		}
	}
	JOINT Spine
	{
		OFFSET -0.002533 0.108963 -0.026696
		CHANNELS 3 Zrotation Yrotation Xrotation
		JOINT Spine1
		{
			OFFSET 0.005487 0.135180 0.001092
			CHANNELS 3 Zrotation Yrotation Xrotation
			JOINT Spine2
			{
				OFFSET 0.001457 0.052922 0.025425
				CHANNELS 3 Zrotation Yrotation Xrotation
				JOINT Neck
				{
					OFFSET -0.002778 0.213870 -0.042857
					CHANNELS 3 Zrotation Yrotation Xrotation
					JOINT Head
					{
						OFFSET 0.005152 0.064970 0.051349
						CHANNELS 3 Zrotation Yrotation Xrotation
						End Site
						{
							OFFSET 0.000000 0.000000 0.000000
						}
					}
				}
				JOINT LeftShoulder
				{
					OFFSET 0.078845 0.121749 -0.034090
					CHANNELS 3 Zrotation Yrotation Xrotation
					JOINT LeftArm
					{
						OFFSET 0.090977 0.030469 -0.008868
						CHANNELS 3 Zrotation Yrotation Xrotation
						JOINT LeftForeArm
						{
							OFFSET 0.259612 -0.012772 -0.027456
							CHANNELS 3 Zrotation Yrotation Xrotation
							JOINT LeftHand
							{
								OFFSET 0.249234 0.008986 -0.001171
								CHANNELS 3 Zrotation Yrotation Xrotation
								End Site
								{
									OFFSET 0.000000 0.000000 0.000000
								}
							}
						}
					}
				}
				JOINT RightShoulder
				{
					OFFSET -0.081759 0.118833 -0.038615
					CHANNELS 3 Zrotation Yrotation Xrotation
					JOINT RightArm
					{
						OFFSET -0.096012 0.032551 -0.009143
						CHANNELS 3 Zrotation Yrotation Xrotation
						JOINT RightForeArm
						{
							OFFSET -0.253742 -0.013329 -0.021401
							CHANNELS 3 Zrotation Yrotation Xrotation
							JOINT RightHand
							{
								OFFSET -0.255298 0.007772 -0.005559
								CHANNELS 3 Zrotation Yrotation Xrotation
								End Site
								{
									OFFSET 0.000000 0.000000 0.000000
								}
							}
						}
					}
				}
			}
		}
	}
}
MOTION
Frames: 8
Frame Time: 0.05000000
-10.382032 0.464914 -2.590782 -16.051713 -14.414710 40.690254 5.298744 4.774899 -100.058285 -15.474159 33.373448 124.446622 22.751535 40.792179 -10.240507 0.000000 0.000000 0.000000 -64.350325 -36.921038 -80.632986 92.647669 -49.956088 23.072854 -27.650569 -44.512717 16.565061 0.000000 0.000000 0.000000 15.940620 -2.001628 -10.541403 -5.776692 1.656717 -11.447483 -4.140421 3.272165 42.324047 5.840905 -4.849363 -8.338584 0.000000 0.000000 0.000000 -10.587840 -24.542252 13.579499 -26.656940 -28.936566 -0.034986 23.600857 -19.673762 -2.691877 0.000000 0.000000 0.000000 4.412255 24.807158 9.506259 10.716855 32.075218 -2.235980 -40.483804 43.769479 -15.890356 0.000000 0.000000 0.000000 
-11.184933 0.507331 -2.649602 -12.228335 -29.023986 46.001556 4.229734 8.435407 -93.198747 -4.939130 17.119509 124.663337 10.177720 16.447563 -16.693329 0.000000 0.000000 0.000000 -62.280819 -33.730413 -89.139790 89.635801 -50.316796 24.272538 -33.955098 -48.462400 20.905431 0.000000 0.000000 0.000000 12.867667 -0.593004 -17.343291 -4.596250 1.353084 -8.536029 -2.880271 5.844330 42.197369 8.709017 -7.756881 -2.170177 0.000000 0.000000 0.000000 -5.614624 -24.076974 12.026288 -22.848633 -25.313468 -0.756725 33.379668 -23.343929 -4.761893 0.000000 0.000000 0.000000 6.095261 24.919288 9.144318 5.617055 23.500712 -2.200481 -28.222404 46.191976 -12.353598 0.000000 0.000000 0.000000 
-11.940487 0.553695 -2.800256 -10.810845 -43.290355 51.261013 0.915633 9.182522 -86.135834 5.869490 0.999792 118.135517 3.036623 -7.975580 -21.182297 0.000000 0.000000 0.000000 -65.467503 -29.252007 -90.356683 94.459755 -44.535755 14.000099 -47.021688 -55.476043 30.638648 0.000000 0.000000 0.000000 10.537568 0.564363 -21.625036 -3.965268 1.072705 -10.670064 -3.827629 3.771268 43.172697 9.667082 -8.437751 -6.915995 0.000000 0.000000 0.000000 3.995855 -20.929643 7.589942 -28.632597 -21.933369 0.441977 42.139392 -30.132301 -7.012058 0.000000 0.000000 0.000000 -0.501948 22.181645 6.924011 9.249243 23.328048 -1.730162 -22.250858 54.916993 -14.618637 0.000000 0.000000 0.000000 
-12.641398 0.613345 -3.015585 -10.852064 -61.155281 54.104758 -4.268235 9.230122 -79.567862 20.002777 -12.249847 108.445771 -3.191005 -18.080715 -11.952794 0.000000 0.000000 0.000000 -66.991566 -20.526046 -92.050066 93.450177 -34.698852 7.421001 -55.344368 -58.617058 39.834450 0.000000 0.000000 0.000000 7.408390 1.456251 -23.762799 -2.790364 0.625890 -11.515650 -4.232655 3.368902 42.761381 6.752499 -6.646941 -9.516038 0.000000 0.000000 0.000000 8.665256 -17.253023 4.302428 -33.424456 -18.699157 1.330510 45.665276 -37.775777 -8.452129 0.000000 0.000000 0.000000 -7.104118 16.649390 6.188052 15.173455 26.487903 -1.611522 -12.100423 62.801965 -15.063093 0.000000 0.000000 0.000000 
-13.241104 0.669899 -3.292458 -16.415103 -79.726200 60.496441 -16.661301 8.142896 -83.522040 34.042492 -27.496391 101.219282 -7.708698 -23.995648 -5.739232 0.000000 0.000000 0.000000 -69.131763 -10.152323 -90.997267 84.891812 -21.581987 4.790316 -62.171502 -72.802777 37.862365 0.000000 0.000000 0.000000 2.452537 2.744352 -26.444285 -2.240526 0.328340 -11.899208 -4.616549 3.639931 42.520971 6.420728 -6.942576 -10.960032 0.000000 0.000000 0.000000 13.363609 -14.849626 1.072116 -40.792113 -15.027275 2.855797 47.361628 -45.560950 -9.231266 0.000000 0.000000 0.000000 -9.013486 13.427779 6.346729 26.308519 28.689492 -1.180737 -6.195120 67.318171 -17.253996 0.000000 0.000000 0.000000 
-13.665833 0.722449 -3.611439 -169.531831 -86.120347 -146.207162 -34.997082 2.073836 -91.097196 51.473688 -44.248883 87.243958 -7.422158 -23.989888 -5.383699 0.000000 0.000000 0.000000 -72.091125 -1.405875 -85.197810 78.597388 -6.755341 -0.511105 -81.060105 -84.014432 52.603263 0.000000 0.000000 0.000000 -2.585151 4.271424 -28.862018 -0.938968 -0.130163 -13.345604 -4.731022 1.948285 43.536578 5.290552 -7.182697 -17.186338 0.000000 0.000000 0.000000 16.847797 -11.246799 -2.149621 -47.532767 -12.860643 6.162409 43.087957 -57.477168 -9.123575 0.000000 0.000000 0.000000 -13.482170 8.383693 7.738143 40.040289 30.044705 -3.513933 14.619700 70.888448 -8.112004 0.000000 0.000000 0.000000 
-13.992322 0.760729 -3.943285 177.229118 -69.659230 -138.081079 -55.562766 -5.293212 -96.001222 89.580177 -50.737276 48.719268 -9.981717 -36.282844 -8.634193 0.000000 0.000000 0.000000 -73.452039 6.910592 -80.654502 75.904997 8.478921 -4.778011 -154.617791 -79.231472 127.849778 0.000000 0.000000 0.000000 -4.921686 4.087154 -25.467429 -1.708481 -0.095078 -14.797464 -2.520390 3.019498 42.689716 4.588309 -7.215553 -22.009205 0.000000 0.000000 0.000000 19.541628 -9.309645 -3.920889 -54.075092 -11.317422 10.988998 35.717278 -63.060999 -5.585789 0.000000 0.000000 0.000000 -15.921565 3.978925 8.640848 46.875143 30.598599 -7.620971 35.572236 68.327955 1.888641 0.000000 0.000000 0.000000 
-14.280418 0.794660 -4.358821 176.606110 -51.572126 -144.048499 -80.942119 -11.383214 -94.976128 117.210432 -23.196929 5.837977 -33.051198 -55.195623 10.004274 0.000000 0.000000 0.000000 -75.323960 15.303422 -76.928148 76.069273 26.286433 -7.685584 -158.629978 -66.615157 135.044915 0.000000 0.000000 0.000000 -5.790529 3.799204 -19.930968 -1.026348 -0.185945 -16.023963 -1.614035 4.039474 42.417825 4.788660 -6.845907 -25.291111 0.000000 0.000000 0.000000 21.355569 -6.768928 -4.327058 -61.778516 -11.145375 19.877115 34.955023 -61.081212 -5.616241 0.000000 0.000000 0.000000 -19.582649 0.421673 9.391108 55.794870 28.527232 -16.916069 51.110025 59.293150 5.627964 0.000000 0.000000 0.000000 
